<svg width="1366" height="769" viewBox="0 0 1366 769" fill="none" xmlns="http://www.w3.org/2000/svg">
<g clip-path="url(#clip0)">
<path opacity="0.6" d="M1230 181C1245.29 288.84 1297.59 299.235 1310 387C1327.15 508.223 1250.67 651.966 1186 651C1138.04 650.284 1198.62 427.882 1129 314C1076.44 228.022 1033.34 173.144 937.999 140.5C829.45 103.332 713.191 87.2792 647.003 181C580.305 275.443 617.103 400.339 709.003 470.5C777.988 523.167 852.68 460.677 929.003 502C1037.26 560.613 1096.59 769 1096.59 769H1366V0H1256.01C1222.95 44.995 1222.51 128.156 1230 181Z" fill="url(#paint0_linear)"/>
<path opacity="0.14" d="M354.427 250.868C357.517 228.868 310.277 185.621 264.327 170.875C251.285 166.69 175.927 142.506 150.245 207.235C144.702 221.208 134.161 254.213 144.431 267.835C154.006 280.535 201.109 277.535 267.231 254.502C336.938 230.228 352.535 264.342 354.427 250.868Z" fill="url(#paint1_linear)"/>
<path opacity="0.2" d="M1107.5 98C1113.85 98 1119 92.8513 1119 86.5C1119 80.1487 1113.85 75 1107.5 75C1101.15 75 1096 80.1487 1096 86.5C1096 92.8513 1101.15 98 1107.5 98Z" fill="white"/>
<path opacity="0.12" d="M752 368C753.657 368 755 366.657 755 365C755 363.343 753.657 362 752 362C750.343 362 749 363.343 749 365C749 366.657 750.343 368 752 368Z" fill="white"/>
<path opacity="0.2" d="M1126 420C1130.42 420 1134 416.418 1134 412C1134 407.582 1130.42 404 1126 404C1121.58 404 1118 407.582 1118 412C1118 416.418 1121.58 420 1126 420Z" fill="white"/>
<path opacity="0.13" d="M782 49C785.866 49 789 45.866 789 42C789 38.134 785.866 35 782 35C778.134 35 775 38.134 775 42C775 45.866 778.134 49 782 49Z" fill="white"/>
</g>
<defs>
<linearGradient id="paint0_linear" x1="1420" y1="-41.9999" x2="1067.28" y2="664.889" gradientUnits="userSpaceOnUse">
<stop stop-color="#4070F4"/>
<stop offset="0.686" stop-color="#5681F9" stop-opacity="0.051"/>
<stop offset="1" stop-color="#EE5050" stop-opacity="0"/>
</linearGradient>
<linearGradient id="paint1_linear" x1="247.34" y1="163" x2="259.5" y2="275" gradientUnits="userSpaceOnUse">
<stop stop-color="#4070F4"/>
<stop offset="1" stop-color="#4070F4" stop-opacity="0"/>
</linearGradient>
<clipPath id="clip0">
<rect width="1366" height="769" fill="white"/>
</clipPath>
</defs>
</svg>
